<svg width="436" height="84" viewBox="0 0 436 84" fill="none" xmlns="http://www.w3.org/2000/svg">
<path d="M155.555 6.2257V51.1247C155.555 55.5769 154.998 59.5839 153.886 63.1457C152.773 66.7759 151.034 69.824 148.67 72.2898C146.375 74.8242 143.454 76.7763 139.907 78.1462C136.361 79.5161 132.153 80.2011 127.285 80.2011C125.268 80.2011 123.113 80.0299 120.818 79.6874C118.592 79.3449 116.367 78.8312 114.141 78.1462C111.986 77.4613 109.899 76.6051 107.883 75.5776C105.866 74.5502 104.058 73.3858 102.458 72.0844L109.656 62.5292C112.09 64.7896 114.837 66.502 117.897 67.6664C120.957 68.8993 124.051 69.5158 127.181 69.5158C130.171 69.5158 132.675 69.0705 134.692 68.1801C136.778 67.3582 138.412 66.1937 139.594 64.6868C140.846 63.1799 141.716 61.399 142.202 59.3441C142.759 57.2893 143.037 55.0289 143.037 52.5631V48.967H142.828C141.02 51.3644 138.69 53.2138 135.839 54.5152C133.057 55.7481 129.928 56.3646 126.451 56.3646C122.695 56.3646 119.288 55.6796 116.228 54.3097C113.168 52.9398 110.56 51.0904 108.404 48.7616C106.318 46.4327 104.684 43.7271 103.501 40.6448C102.319 37.494 101.728 34.172 101.728 30.6787C101.728 27.1169 102.284 23.7606 103.397 20.6098C104.579 17.459 106.213 14.7192 108.3 12.3903C110.456 10.0615 113.029 8.21207 116.019 6.84216C119.079 5.47224 122.487 4.78728 126.242 4.78728C129.789 4.78728 133.092 5.50649 136.152 6.9449C139.212 8.38331 141.646 10.6094 143.454 13.6232H143.663V6.2257H155.555ZM128.85 14.8562C126.555 14.8562 124.503 15.2671 122.695 16.0891C120.957 16.911 119.462 18.0412 118.21 19.4796C117.028 20.8495 116.089 22.4934 115.393 24.4113C114.767 26.3292 114.454 28.3841 114.454 30.5759C114.454 32.5623 114.767 34.4802 115.393 36.3296C116.089 38.179 117.028 39.8571 118.21 41.364C119.462 42.8024 120.957 43.9669 122.695 44.8573C124.503 45.7477 126.52 46.193 128.746 46.193C131.041 46.193 133.092 45.782 134.9 44.96C136.778 44.0696 138.343 42.9052 139.594 41.4668C140.916 40.0283 141.924 38.3844 142.62 36.5351C143.315 34.6172 143.663 32.6308 143.663 30.5759C143.663 28.4526 143.315 26.4319 142.62 24.5141C141.924 22.5962 140.916 20.918 139.594 19.4796C138.343 18.0412 136.813 16.911 135.005 16.0891C133.196 15.2671 131.145 14.8562 128.85 14.8562Z" fill="#1C1C1C"/>
<path d="M165.865 6.2257H177.861V14.4452H178.07C179.461 11.5684 181.408 9.23951 183.911 7.45862C186.415 5.67773 189.336 4.78728 192.674 4.78728C193.161 4.78728 193.682 4.82153 194.239 4.89003C194.795 4.89003 195.282 4.95852 195.699 5.09551V16.3973C194.865 16.1918 194.134 16.0548 193.509 15.9863C192.952 15.9178 192.396 15.8836 191.839 15.8836C188.988 15.8836 186.693 16.3973 184.955 17.4247C183.216 18.4522 181.86 19.6851 180.886 21.1235C179.913 22.5619 179.252 24.0346 178.904 25.5415C178.557 27.0484 178.383 28.2471 178.383 29.1375V55.5426H165.865V6.2257Z" fill="#1C1C1C"/>
<path d="M198.414 30.6787C198.414 26.7744 199.109 23.2469 200.5 20.0961C201.961 16.8768 203.908 14.137 206.342 11.8766C208.776 9.61623 211.662 7.86959 215 6.63667C218.338 5.40375 221.885 4.78728 225.64 4.78728C229.396 4.78728 232.942 5.40375 236.281 6.63667C239.619 7.86959 242.505 9.61623 244.939 11.8766C247.373 14.137 249.285 16.8768 250.676 20.0961C252.136 23.2469 252.867 26.7744 252.867 30.6787C252.867 34.5829 252.136 38.1447 250.676 41.364C249.285 44.5833 247.373 47.3574 244.939 49.6862C242.505 51.9466 239.619 53.7275 236.281 55.0289C232.942 56.3303 229.396 56.981 225.64 56.981C221.885 56.981 218.338 56.3303 215 55.0289C211.662 53.7275 208.776 51.9466 206.342 49.6862C203.908 47.3574 201.961 44.5833 200.5 41.364C199.109 38.1447 198.414 34.5829 198.414 30.6787ZM211.14 30.6787C211.14 32.5966 211.419 34.5144 211.975 36.4323C212.601 38.3502 213.505 40.0626 214.687 41.5695C215.869 43.0764 217.365 44.3093 219.173 45.2683C220.981 46.2272 223.137 46.7067 225.64 46.7067C228.144 46.7067 230.3 46.2272 232.108 45.2683C233.916 44.3093 235.411 43.0764 236.593 41.5695C237.776 40.0626 238.645 38.3502 239.201 36.4323C239.827 34.5144 240.14 32.5966 240.14 30.6787C240.14 28.7608 239.827 26.8772 239.201 25.0278C238.645 23.1099 237.776 21.3975 236.593 19.8906C235.411 18.3837 233.916 17.185 232.108 16.2946C230.3 15.3356 228.144 14.8562 225.64 14.8562C223.137 14.8562 220.981 15.3356 219.173 16.2946C217.365 17.185 215.869 18.3837 214.687 19.8906C213.505 21.3975 212.601 23.1099 211.975 25.0278C211.419 26.8772 211.14 28.7608 211.14 30.6787Z" fill="#1C1C1C"/>
<path d="M253.216 6.2257H266.777L277.209 41.5695H277.418L288.162 6.2257H301.514L312.363 41.5695H312.572L323.212 6.2257H336.252L318.935 55.5426H306.209L294.838 21.0208H294.63L283.364 55.5426H270.637L253.216 6.2257Z" fill="#1C1C1C"/>
<path d="M386.226 18.4127C385.175 17.0877 383.789 16.0465 382.068 15.2894C380.395 14.4849 378.769 14.0826 377.192 14.0826C376.379 14.0826 375.543 14.1536 374.682 14.2956C373.87 14.4375 373.129 14.7215 372.46 15.1474C371.791 15.526 371.217 16.0465 370.739 16.7091C370.309 17.3243 370.094 18.1288 370.094 19.1226C370.094 19.9744 370.261 20.6843 370.596 21.2522C370.978 21.8201 371.504 22.317 372.173 22.7429C372.89 23.1688 373.726 23.571 374.682 23.9496C375.638 24.2809 376.714 24.6358 377.909 25.0144C379.63 25.5823 381.422 26.2212 383.287 26.931C385.151 27.5936 386.848 28.4927 388.377 29.6285C389.907 30.7643 391.174 32.184 392.178 33.8877C393.181 35.544 393.683 37.6262 393.683 40.1344C393.683 43.0212 393.134 45.5293 392.034 47.6589C390.983 49.7412 389.549 51.4685 387.732 52.8409C385.916 54.2133 383.836 55.2307 381.494 55.8933C379.152 56.5558 376.738 56.8871 374.252 56.8871C370.619 56.8871 367.106 56.2719 363.712 55.0414C360.318 53.7637 357.498 51.9654 355.251 49.6465L363.282 41.5541C364.525 43.0685 366.15 44.3462 368.158 45.3874C370.213 46.3812 372.245 46.8781 374.252 46.8781C375.16 46.8781 376.045 46.7834 376.905 46.5941C377.766 46.4048 378.507 46.0972 379.128 45.6713C379.797 45.2454 380.323 44.6775 380.705 43.9676C381.088 43.2578 381.279 42.406 381.279 41.4122C381.279 40.4657 381.04 39.6612 380.562 38.9986C380.084 38.3361 379.391 37.7446 378.483 37.224C377.622 36.6561 376.523 36.1592 375.184 35.7333C373.894 35.26 372.412 34.7631 370.739 34.2426C369.114 33.722 367.512 33.1068 365.935 32.397C364.405 31.6871 363.019 30.7879 361.776 29.6995C360.581 28.5637 359.601 27.215 358.837 25.6533C358.12 24.0443 357.761 22.104 357.761 19.8325C357.761 17.0404 358.335 14.6505 359.482 12.6629C360.629 10.6753 362.135 9.04262 363.999 7.76487C365.863 6.48713 367.966 5.56431 370.309 4.99642C372.651 4.38121 375.017 4.07361 377.407 4.07361C380.275 4.07361 383.191 4.59417 386.155 5.63529C389.166 6.67642 391.795 8.21445 394.042 10.2494L386.226 18.4127Z" fill="#4BADE4"/>
<path d="M413.89 15.7153V26.0792H433.536V36.0882H413.89V55.6093H401.773V5.35135H435.185V15.7153H413.89Z" fill="#4BADE4"/>
<path fill-rule="evenodd" clip-rule="evenodd" d="M42.2975 83.4287C65.6577 83.4287 84.595 64.7526 84.595 41.7144C84.595 18.6762 65.6577 6.7435e-07 42.2975 0C18.9372 -6.7435e-07 0 18.6762 0 41.7144C0 42.027 0.00348774 42.3389 0.0104281 42.6499L23.397 19.2633L35.2388 19.2199L1.54248 52.9163C2.37192 55.8576 3.51995 58.6681 4.9476 61.3093L30.7359 35.521L42.5777 35.4776L9.72622 68.3291C11.5178 70.4592 13.5201 72.4107 15.7016 74.1525L48.4774 41.3768L48.4383 53.2142L22.8729 78.7796C25.5646 80.1543 28.425 81.2523 31.4156 82.0352L64.8577 48.5931L64.8187 60.4305L41.8231 83.4261C41.981 83.4279 42.1391 83.4287 42.2975 83.4287ZM45.7628 19.6136L37.5302 27.8463H56.1883V46.5016L64.4209 38.2689L64.421 19.6136L45.7628 19.6136Z" fill="#4BADE4"/>
</svg>
